:version 1.10
:name ASF
:units
  mass 1
  length 1
  angle deg
:documentation
  ASF file generated by Kaydara
:root
  axis xyz
  order  tx ty tz rx ry rz
  position 0 0 0
  orientation 0 0 0
:bonedata
  begin
    id 1
    name RightUpLegDummy
    direction -0.718183 -0.695806 0.00816078
    length 4.904
    axis 0 0 0 xyz
  end
  begin
    id 2
    name RightUpLeg
    direction -0.0736652 -0.994202 0.0783343
    length 17.4976
    axis -2.72909 -3.00389 -4.00133 xyz
    dof rx ry rz
  end
  begin
    id 3
    name RightLeg
    direction -0.0389037 -0.994596 -0.0962598
    length 16.5821
    axis 3.95836 -18.5909 -4.46993 xyz
    dof rx ry rz
  end
  begin
    id 4
    name RightFoot
    direction -0.311643 -0.412678 0.855906
    length 3.77069
    axis -1.99483 -18.8351 -3.27644 xyz
    dof rx ry rz
  end
  begin
    id 5
    name RightToes
    direction -0.317852 0.0389852 0.947339
    length 3.85082
    axis -2.00228 -18.1713 -3.25211 xyz
    dof rx ry rz
  end
  begin
    id 6
    name SpineDummy
    direction 8.3039e-015 1 4.44677e-016
    length 4.6813
    axis 0 0 0 xyz
  end
  begin
    id 7
    name Spine
    direction -0.000262373 0.999988 0.00493267
    length 10.1015
    axis -0.00246081 0.00062579 0.0150362 xyz
    dof rx ry rz
  end
  begin
    id 8
    name Spine1
    direction 0 0 0
    length 0
    axis -0.00349562 0.000650293 0.0196666 xyz
    dof rx ry rz
  end
  begin
    id 9
    name HEadDummy
    direction -0.000343232 0.999999 0.00123745
    length 3.43865
    axis -0.00349562 0.000650293 0.0196666 xyz
  end
  begin
    id 10
    name HEad
    direction -0.0461221 0.980933 0.188796
    length 5.12695
    axis -0.00351404 -7.04812 0.0199272 xyz
    dof rx ry rz
  end
  begin
    id 11
    name LeftShoulder1Dummy
    direction 0.998904 -0.0399089 -0.0244534
    length 3.5433
    axis -0.00349562 0.000650293 0.0196666 xyz
  end
  begin
    id 12
    name LeftShoulder1
    direction 0.99951 1.64443e-005 0.0312999
    length 4.05031
    axis -0.00349562 0.000650293 0.0196666 xyz
    dof rx ry rz
  end
  begin
    id 13
    name LeftArm
    direction 0.984791 0.0515299 0.165927
    length 12.9126
    axis -64.823 -10.7743 5.20463 xyz
    dof rx ry rz
  end
  begin
    id 14
    name LeftForeArm
    direction 0.984968 0.0534808 0.16425
    length 10.8596
    axis -30.0462 -7.70601 1.87451 xyz
    dof rx ry rz
  end
  begin
    id 15
    name LeftHand
    direction 0.975871 0.0289682 0.216418
    length 6.62295
    axis -20.1348 -6.98077 1.86072 xyz
    dof rx ry rz
  end
  begin
    id 16
    name RightShoulderDummy
    direction -0.998877 -0.0405946 -0.0244307
    length 3.5433
    axis -0.00349562 0.000650293 0.0196666 xyz
  end
  begin
    id 17
    name RightShoulder
    direction -0.998933 -0.0249743 -0.0388558
    length 4.05031
    axis -0.0205316 -4.02113 1.41395 xyz
    dof rx ry rz
  end
  begin
    id 18
    name RightArm
    direction -0.997559 0.068664 0.0127103
    length 12.9638
    axis -67.3882 1.84188 -6.15987 xyz
    dof rx ry rz
  end
  begin
    id 19
    name RightForeArm
    direction -0.991508 0.0912848 0.0926241
    length 10.8312
    axis -22.1975 3.41087 -4.28711 xyz
    dof rx ry rz
  end
  begin
    id 20
    name RightHand
    direction -0.989262 0.0600788 0.133232
    length 6.57864
    axis -12.2911 2.17515 -4.39675 xyz
    dof rx ry rz
  end
  begin
    id 21
    name LeftUpLegDummy
    direction 0.718183 -0.695806 0.00816078
    length 4.904
    axis 0 0 0 xyz
  end
  begin
    id 22
    name LeftUpLeg
    direction 0.0831398 -0.99469 0.0606531
    length 17.4976
    axis -1.71016 2.29552 4.63832 xyz
    dof rx ry rz
  end
  begin
    id 23
    name LeftLeg
    direction 0.0498442 -0.991778 -0.117862
    length 16.5821
    axis 5.13757 15.5727 5.13348 xyz
    dof rx ry rz
  end
  begin
    id 24
    name LeftFoot
    direction 0.269026 -0.433896 0.85986
    length 3.77069
    axis -0.576502 15.6961 4.10267 xyz
    dof rx ry rz
  end
  begin
    id 25
    name LeftToes
    direction 0.277311 0.0251143 0.960452
    length 3.85048
    axis -0.576502 15.6961 4.10267 xyz
    dof rx ry rz
  end
:hierarchy
  begin
    root RightUpLegDummy SpineDummy LeftUpLegDummy
    RightUpLegDummy RightUpLeg
    RightUpLeg RightLeg
    RightLeg RightFoot
    RightFoot RightToes
    SpineDummy Spine
    Spine Spine1
    Spine1 HEadDummy LeftShoulder1Dummy RightShoulderDummy
    HEadDummy HEad
    LeftShoulder1Dummy LeftShoulder1
    LeftShoulder1 LeftArm
    LeftArm LeftForeArm
    LeftForeArm LeftHand
    RightShoulderDummy RightShoulder
    RightShoulder RightArm
    RightArm RightForeArm
    RightForeArm RightHand
    LeftUpLegDummy LeftUpLeg
    LeftUpLeg LeftLeg
    LeftLeg LeftFoot
    LeftFoot LeftToes
  end

:SAMPLES-PER-SECOND 30
:FULLY-SPECIFIED
:DEGREES
76
root  -8.72787 19.8429 80.4872 -130.517 22.2478 -147.744
RightUpLeg  -103.759 3.49678 37.0925
RightLeg  113.138 17.4944 -4.01477
RightFoot  -33.2508 -0.0430956 -0.884307
RightToes  -5.82073e-011 -3.18055e-015 -2.98177e-016
Spine  45.8823 3.36677 10.0165
Spine1  0.516475 8.27061 -7.91739
HEad  -21.722 12.1861 -18.2532
LeftShoulder1  -3.88251e-019 9.70628e-020 -3.87848e-018
LeftArm  -4.10424 -29.5811 -46.045
LeftForeArm  -2.89918 -9.33871 -1.17361
LeftHand  -7.82664 -9.39417 58.013
RightShoulder  0.100289 2.54959 -1.76789
RightArm  11.48 38.4131 74.4632
RightForeArm  18.746 16.9342 -10.8349
RightHand  -2.08 8.28272 -17.5248
LeftUpLeg  -64.1021 22.558 2.16516
LeftLeg  129.934 -24.2763 12.3173
LeftFoot  -52.3119 -11.8633 -32.1182
LeftToes  -2.27483e-011 -5.53417e-011 9.36564e-012
77
root  -9.05624 19.7384 79.7512 -130.15 23.637 -148.279
RightUpLeg  -104.158 2.05214 34.6534
RightLeg  114.503 16.896 -2.59972
RightFoot  -33.5557 0.168194 0.30386
RightToes  -5.82073e-011 -3.18055e-015 -2.98177e-016
Spine  45.246 3.47024 10.8999
Spine1  1.90823 9.29117 -9.9313
HEad  -20.4646 11.5873 -18.1916
LeftShoulder1  -3.88251e-019 9.70628e-020 -3.87848e-018
LeftArm  -3.53692 -29.6378 -49.7124
LeftForeArm  -1.82926 -10.146 -1.26883
LeftHand  -8.3943 -9.71831 60.3584
RightShoulder  0.284466 3.23809 -0.622205
RightArm  11.344 38.0665 74.0093
RightForeArm  18.1138 16.1008 -10.5253
RightHand  -2.17109 7.86364 -18.823
LeftUpLeg  -61.9949 21.8 0.432356
LeftLeg  130.675 -22.0374 9.74098
LeftFoot  -52.1293 -10.9806 -29.9404
LeftToes  -2.27483e-011 -5.53417e-011 9.36564e-012
78
root  -9.36569 19.6799 79.0722 -130.098 24.2096 -148.58
RightUpLeg  -104.09 0.319805 32.4627
RightLeg  115.683 16.0525 -0.83878
RightFoot  -33.5557 0.366423 1.41032
RightToes  -5.82073e-011 -3.18055e-015 -2.98177e-016
Spine  45.037 3.36605 11.4979
Spine1  2.83096 9.67985 -10.5384
HEad  -20.0313 11.1572 -18.5196
LeftShoulder1  -3.88251e-019 9.70628e-020 -3.87848e-018
LeftArm  -3.45656 -29.3105 -51.8239
LeftForeArm  -1.38461 -10.3446 -1.72528
LeftHand  -8.92204 -9.78114 63.2463
RightShoulder  0.491548 4.02869 0.501016
RightArm  11.7983 37.9182 75.2964
RightForeArm  19.5358 13.8578 -10.0358
RightHand  -2.30321 7.90043 -19.8881
LeftUpLeg  -60.2411 21.0738 -0.712118
LeftLeg  130.727 -20.5853 8.2103
LeftFoot  -51.3034 -10.049 -28.0776
LeftToes  -2.27483e-011 -5.53417e-011 9.36564e-012
79
root  -9.66093 19.7119 78.4535 -130.228 24.4032 -148.5
RightUpLeg  -103.461 -1.16509 30.7197
RightLeg  116.349 15.2877 0.651785
RightFoot  -33.162 0.556368 2.52798
RightToes  -5.82073e-011 -3.18055e-015 -2.98177e-016
Spine  45.5607 3.32506 12.2702
Spine1  2.91255 10.0908 -10.7219
HEad  -19.0498 10.095 -18.7047
LeftShoulder1  -3.88251e-019 9.70628e-020 -3.87848e-018
LeftArm  -3.04805 -28.9573 -54.2453
LeftForeArm  -0.573051 -9.63572 -2.28218
LeftHand  -9.15673 -9.80567 64.4924
RightShoulder  0.675028 4.88938 1.21899
RightArm  12.1063 37.3023 76.1716
RightForeArm  23.6088 11.0454 -9.5782
RightHand  -2.40824 8.37898 -20.075
LeftUpLeg  -59.1066 20.9495 -1.84878
LeftLeg  130.144 -20.4283 8.19655
LeftFoot  -49.6541 -9.1076 -26.7005
LeftToes  -2.27483e-011 -5.53417e-011 9.36564e-012
80
root  -9.92588 19.8481 77.8808 -130.025 24.7422 -148.474
RightUpLeg  -103.01 -2.10493 29.235
RightLeg  116.381 14.9696 1.26542
RightFoot  -32.4588 0.736601 3.70075
RightToes  -5.82073e-011 -3.18055e-015 -2.98177e-016
Spine  46.1124 3.5108 12.7832
Spine1  2.68758 10.6104 -11.1348
HEad  -17.857 8.64281 -18.331
LeftShoulder1  -3.88251e-019 9.70628e-020 -3.87848e-018
LeftArm  -2.4689 -28.8911 -57.2399
LeftForeArm  0.575735 -8.45635 -2.55373
LeftHand  -9.38679 -9.94591 65.2859
RightShoulder  0.847677 5.79042 1.7222
RightArm  11.8293 36.3763 75.7455
RightForeArm  28.4771 8.60281 -9.07288
RightHand  -2.51983 8.67651 -20.5507
LeftUpLeg  -58.9641 21.2741 -3.7997
LeftLeg  128.761 -21.2038 9.43467
LeftFoot  -47.7118 -8.29126 -25.7714
LeftToes  -2.27483e-011 -5.53417e-011 9.36564e-012
81
root  -10.1648 20.0324 77.3542 -128.994 25.0193 -148.543
RightUpLeg  -103.194 -2.86746 28.0051
RightLeg  116.041 14.6196 1.9868
RightFoot  -31.5926 0.859191 4.65353
RightToes  -5.82073e-011 -3.18055e-015 -2.98177e-016
Spine  45.9596 3.83871 13.0136
Spine1  2.70801 11.0395 -11.5605
HEad  -17.5341 7.29303 -17.8918
LeftShoulder1  -3.88251e-019 9.70628e-020 -3.87848e-018
LeftArm  -2.451 -28.917 -59.4216
LeftForeArm  1.19647 -8.26856 -2.69319
LeftHand  -9.70694 -10.0454 66.701
RightShoulder  1.07549 6.65455 2.61061
RightArm  11.381 35.6971 74.5417
RightForeArm  31.8073 6.87462 -8.43471
RightHand  -2.71407 8.27905 -22.7115
LeftUpLeg  -59.6909 21.3393 -5.95659
LeftLeg  126.757 -21.807 10.7623
LeftFoot  -46.3553 -7.73188 -25.0751
LeftToes  -2.27483e-011 -5.53417e-011 9.36564e-012
82
root  -10.4139 20.2228 76.8814 -127.4 24.6725 -148.001
RightUpLeg  -103.109 -3.92657 27.2841
RightLeg  115.556 13.232 4.92003
RightFoot  -31.1845 0.972532 5.48353
RightToes  -5.82073e-011 -3.18055e-015 -2.98177e-016
Spine  45.6066 4.16642 13.7612
Spine1  2.65317 11.5434 -11.5611
HEad  -17.8252 6.06046 -17.8642
LeftShoulder1  -3.88251e-019 9.70628e-020 -3.87848e-018
LeftArm  -2.9498 -28.6406 -60.7492
LeftForeArm  1.34094 -9.19823 -2.92747
LeftHand  -9.89265 -10.0039 67.854
RightShoulder  1.40811 7.44457 4.21465
RightArm  11.1056 35.3237 72.8689
RightForeArm  33.2406 5.8906 -7.80394
RightHand  -3.07951 7.78361 -26.5425
LeftUpLeg  -60.229 20.8875 -6.44294
LeftLeg  124.996 -21.3031 10.7548
LeftFoot  -45.9498 -7.37614 -24.2414
LeftToes  -2.27483e-011 -5.53417e-011 9.36564e-012
83
root  -10.672 20.3962 76.4536 -125.964 23.624 -146.413
RightUpLeg  -101.781 -5.1161 27.0351
RightLeg  114.994 10.8627 10.1553
RightFoot  -31.717 1.19932 6.69575
RightToes  -5.82073e-011 -3.18055e-015 -2.98177e-016
Spine  45.9803 4.44806 15.3851
Spine1  1.87348 12.3755 -11.2631
HEad  -17.7214 4.84857 -18.0067
LeftShoulder1  -3.88251e-019 9.70628e-020 -3.87848e-018
LeftArm  -3.32805 -27.8818 -62.5472
LeftForeArm  1.83327 -9.81318 -2.99098
LeftHand  -10.0037 -9.99974 68.4622
RightShoulder  1.81865 8.17503 6.25127
RightArm  10.7765 34.8519 70.6216
RightForeArm  34.0232 5.64432 -7.23085
RightHand  -3.71595 8.19507 -30.8475
LeftUpLeg  -59.8581 20.518 -4.62557
LeftLeg  124.117 -19.9538 9.32544
LeftFoot  -46.0816 -7.06852 -23.1413
LeftToes  -2.27483e-011 -5.53417e-011 9.36564e-012
84
root  -10.8542 20.4995 76.0498 -125.014 22.3721 -144.599
RightUpLeg  -99.6461 -6.01218 26.4558
RightLeg  114.91 8.91612 14.4343
RightFoot  -32.2673 1.44922 7.98535
RightToes  -5.82073e-011 -3.18055e-015 -2.98177e-016
Spine  46.8078 4.66864 17.0425
Spine1  0.564396 13.3025 -11.1277
HEad  -17.1275 3.80988 -17.8497
LeftShoulder1  -3.88251e-019 9.70628e-020 -3.87848e-018
LeftArm  -3.44074 -26.9952 -64.9214
LeftForeArm  2.93385 -9.48407 -2.77782
LeftHand  -10.2843 -10.1463 69.4222
RightShoulder  2.20857 8.7956 8.105
RightArm  10.4656 34.0903 68.163
RightForeArm  34.6289 5.68156 -6.54993
RightHand  -4.52661 9.07166 -35.0645
LeftUpLeg  -59.0961 20.5642 -2.34374
LeftLeg  123.683 -19.0552 8.26047
LeftFoot  -46.0887 -6.77849 -22.1914
LeftToes  -2.27483e-011 -5.53417e-011 9.36564e-012
85
root  -10.8761 20.4991 75.6788 -124.644 21.3345 -143.98
RightUpLeg  -97.342 -6.7414 24.3658
RightLeg  116.463 8.25675 14.8022
RightFoot  -31.0933 1.43804 8.45949
RightToes  -5.82073e-011 -3.18055e-015 -2.98177e-016
Spine  47.2682 4.79925 17.7829
Spine1  -0.522069 13.8295 -11.1389
HEad  -16.5843 2.93742 -17.2604
LeftShoulder1  -3.88251e-019 9.70628e-020 -3.87848e-018
LeftArm  -3.45543 -26.4583 -66.8363
LeftForeArm  4.19997 -9.01602 -2.80136
LeftHand  -10.6293 -10.2719 70.7639
RightShoulder  2.51091 9.24828 9.47982
RightArm  10.2359 33.1378 66.0586
RightForeArm  34.8734 5.23274 -5.66287
RightHand  -5.23477 9.03513 -40.2494
LeftUpLeg  -58.575 20.4484 -1.58999
LeftLeg  122.898 -19.4314 8.99589
LeftFoot  -45.8527 -6.66982 -22.0025
LeftToes  -2.27483e-011 -5.53417e-011 9.36564e-012
86
root  -10.7451 20.4227 75.3722 -125.133 20.4599 -145.124
RightUpLeg  -94.1848 -7.63839 20.0712
RightLeg  120.112 8.02256 12.9387
RightFoot  -27.9256 1.16825 8.32989
RightToes  -5.82073e-011 -3.18055e-015 -2.98177e-016
Spine  47.4484 4.78337 17.6176
Spine1  -1.19885 13.8935 -10.9389
HEad  -16.1551 1.83197 -16.3109
LeftShoulder1  -3.88251e-019 9.70628e-020 -3.87848e-018
LeftArm  -3.25203 -26.3922 -68.4072
LeftForeArm  5.45389 -8.80899 -3.31033
LeftHand  -10.8276 -10.2869 71.7185
RightShoulder  2.78866 9.59958 10.7562
RightArm  9.75363 32.1193 64.2355
RightForeArm  34.7471 3.97739 -4.815
RightHand  -5.85131 8.08491 -47.2899
LeftUpLeg  -57.858 19.4996 -2.19027
LeftLeg  121.646 -20.3935 10.7418
LeftFoot  -45.8616 -6.76131 -22.2962
LeftToes  -2.27483e-011 -5.53417e-011 9.36564e-012
87
root  -10.5319 20.3427 75.1321 -126.348 19.4152 -147.361
RightUpLeg  -89.1627 -8.21358 14.2305
RightLeg  124.746 6.83381 12.3506
RightFoot  -24.8867 0.944899 8.43032
RightToes  -5.82073e-011 -3.18055e-015 -2.98177e-016
Spine  47.8195 4.60856 17.2408
Spine1  -1.75722 13.8093 -10.5416
HEad  -15.6696 0.218574 -15.0854
LeftShoulder1  -3.88251e-019 9.70628e-020 -3.87848e-018
LeftArm  -2.84194 -26.5677 -70.6558
LeftForeArm  7.01113 -8.36898 -3.76038
LeftHand  -11.0024 -10.3636 72.319
RightShoulder  3.16721 9.96783 12.5551
RightArm  8.68591 31.2854 62.2948
RightForeArm  34.2171 2.29075 -4.37822
RightHand  -6.8678 7.75957 -55.4644
LeftUpLeg  -56.5171 17.7559 -2.65183
LeftLeg  120.509 -20.7373 11.6549
LeftFoot  -46.5353 -6.99619 -22.5806
LeftToes  -2.27483e-011 -5.53417e-011 9.36564e-012
88
root  -10.2757 20.2766 74.9254 -127.459 18.0312 -150.064
RightUpLeg  -82.9787 -7.8303 8.68045
RightLeg  128.489 4.95422 13.0271
RightFoot  -24.2875 0.834058 7.80685
RightToes  -5.82073e-011 -3.18055e-015 -2.98177e-016
Spine  47.8805 4.25908 16.9954
Spine1  -2.08842 13.5317 -10.2322
HEad  -15.3443 -1.53011 -13.7848
LeftShoulder1  -3.88251e-019 9.70628e-020 -3.87848e-018
LeftArm  -2.43851 -26.7364 -73.312
LeftForeArm  8.78321 -7.67988 -3.75254
LeftHand  -11.3149 -10.5785 73.0942
RightShoulder  3.63436 10.3019 14.8355
RightArm  7.36601 30.9034 60.3057
RightForeArm  32.9773 0.943935 -4.34075
RightHand  -8.59535 8.70848 -63.1768
LeftUpLeg  -55.3234 15.4729 -2.65033
LeftLeg  119.831 -20.2546 11.2083
LeftFoot  -47.833 -7.39477 -22.9272
LeftToes  -2.27483e-011 -5.53417e-011 9.36564e-012
